<mxfile host="app.diagrams.net" agent="Mozilla/5.0 (Windows NT 10.0; Win64; x64) AppleWebKit/537.36 (KHTML, like Gecko) Chrome/139.0.0.0 Safari/537.36" version="28.1.1">
  <diagram name="第 1 页" id="4Dg6nDyWwRIcCuGgK7Jx">
    <mxGraphModel dx="902" dy="507" grid="1" gridSize="10" guides="1" tooltips="1" connect="1" arrows="1" fold="1" page="1" pageScale="1" pageWidth="827" pageHeight="1169" math="0" shadow="0">
      <root>
        <mxCell id="0" />
        <mxCell id="1" parent="0" />
        <mxCell id="0nKRqJaGoLqEUH_HNrJ8-2" value="InferrenceRequest" style="swimlane;whiteSpace=wrap;html=1;startSize=23;" parent="1" vertex="1">
          <mxGeometry x="214" y="180" width="200" height="150" as="geometry" />
        </mxCell>
        <mxCell id="0nKRqJaGoLqEUH_HNrJ8-5" value="string request_id" style="text;strokeColor=none;fillColor=none;align=left;verticalAlign=middle;spacingLeft=4;spacingRight=4;overflow=hidden;points=[[0,0.5],[1,0.5]];portConstraint=eastwest;rotatable=0;whiteSpace=wrap;html=1;" parent="0nKRqJaGoLqEUH_HNrJ8-2" vertex="1">
          <mxGeometry y="30" width="200" height="30" as="geometry" />
        </mxCell>
        <mxCell id="0nKRqJaGoLqEUH_HNrJ8-7" value="List&amp;lt;SingleTask&amp;gt;&amp;nbsp; input_blob;" style="text;strokeColor=none;fillColor=none;align=left;verticalAlign=middle;spacingLeft=4;spacingRight=4;overflow=hidden;points=[[0,0.5],[1,0.5]];portConstraint=eastwest;rotatable=0;whiteSpace=wrap;html=1;" parent="0nKRqJaGoLqEUH_HNrJ8-2" vertex="1">
          <mxGeometry y="60" width="200" height="30" as="geometry" />
        </mxCell>
        <mxCell id="0nKRqJaGoLqEUH_HNrJ8-8" value="long&amp;nbsp; &amp;nbsp;timeout_ms" style="text;strokeColor=none;fillColor=none;align=left;verticalAlign=middle;spacingLeft=4;spacingRight=4;overflow=hidden;points=[[0,0.5],[1,0.5]];portConstraint=eastwest;rotatable=0;whiteSpace=wrap;html=1;" parent="0nKRqJaGoLqEUH_HNrJ8-2" vertex="1">
          <mxGeometry y="90" width="200" height="30" as="geometry" />
        </mxCell>
        <mxCell id="0nKRqJaGoLqEUH_HNrJ8-9" value="KvList info" style="text;strokeColor=none;fillColor=none;align=left;verticalAlign=middle;spacingLeft=4;spacingRight=4;overflow=hidden;points=[[0,0.5],[1,0.5]];portConstraint=eastwest;rotatable=0;whiteSpace=wrap;html=1;" parent="0nKRqJaGoLqEUH_HNrJ8-2" vertex="1">
          <mxGeometry y="120" width="200" height="30" as="geometry" />
        </mxCell>
        <mxCell id="0nKRqJaGoLqEUH_HNrJ8-10" value="TaskList" style="swimlane;whiteSpace=wrap;html=1;startSize=23;" parent="1" vertex="1">
          <mxGeometry x="720" y="200" width="200" height="140" as="geometry" />
        </mxCell>
        <mxCell id="0nKRqJaGoLqEUH_HNrJ8-11" value="&lt;div style=&quot;text-align: center;&quot;&gt;&lt;span style=&quot;background-color: transparent; color: light-dark(rgb(0, 0, 0), rgb(255, 255, 255));&quot;&gt;List&amp;lt;&lt;b&gt;SingleTask&lt;/b&gt;&lt;/span&gt;&lt;span style=&quot;background-color: transparent; color: light-dark(rgb(0, 0, 0), rgb(255, 255, 255));&quot;&gt;&amp;gt; tasks&lt;/span&gt;&lt;/div&gt;" style="text;strokeColor=none;fillColor=none;align=left;verticalAlign=middle;spacingLeft=4;spacingRight=4;overflow=hidden;points=[[0,0.5],[1,0.5]];portConstraint=eastwest;rotatable=0;whiteSpace=wrap;html=1;" parent="0nKRqJaGoLqEUH_HNrJ8-10" vertex="1">
          <mxGeometry y="20" width="200" height="30" as="geometry" />
        </mxCell>
        <mxCell id="0nKRqJaGoLqEUH_HNrJ8-12" value="int task_num" style="text;strokeColor=none;fillColor=none;align=left;verticalAlign=middle;spacingLeft=4;spacingRight=4;overflow=hidden;points=[[0,0.5],[1,0.5]];portConstraint=eastwest;rotatable=0;whiteSpace=wrap;html=1;" parent="0nKRqJaGoLqEUH_HNrJ8-10" vertex="1">
          <mxGeometry y="51" width="200" height="30" as="geometry" />
        </mxCell>
        <mxCell id="0nKRqJaGoLqEUH_HNrJ8-14" value="string worker_id" style="text;strokeColor=none;fillColor=none;align=left;verticalAlign=middle;spacingLeft=4;spacingRight=4;overflow=hidden;points=[[0,0.5],[1,0.5]];portConstraint=eastwest;rotatable=0;whiteSpace=wrap;html=1;" parent="0nKRqJaGoLqEUH_HNrJ8-10" vertex="1">
          <mxGeometry y="80" width="200" height="30" as="geometry" />
        </mxCell>
        <mxCell id="0nKRqJaGoLqEUH_HNrJ8-16" value="KvList meta" style="text;strokeColor=none;fillColor=none;align=left;verticalAlign=middle;spacingLeft=4;spacingRight=4;overflow=hidden;points=[[0,0.5],[1,0.5]];portConstraint=eastwest;rotatable=0;whiteSpace=wrap;html=1;" parent="0nKRqJaGoLqEUH_HNrJ8-10" vertex="1">
          <mxGeometry y="110" width="200" height="30" as="geometry" />
        </mxCell>
        <mxCell id="0nKRqJaGoLqEUH_HNrJ8-17" value="WorkerResult" style="swimlane;whiteSpace=wrap;html=1;startSize=23;" parent="1" vertex="1">
          <mxGeometry x="200" y="420" width="200" height="80" as="geometry" />
        </mxCell>
        <mxCell id="0nKRqJaGoLqEUH_HNrJ8-18" value="List&amp;lt;&lt;b style=&quot;text-align: center;&quot;&gt;SingleResult&lt;/b&gt;&amp;gt; results" style="text;strokeColor=none;fillColor=none;align=left;verticalAlign=middle;spacingLeft=4;spacingRight=4;overflow=hidden;points=[[0,0.5],[1,0.5]];portConstraint=eastwest;rotatable=0;whiteSpace=wrap;html=1;" parent="0nKRqJaGoLqEUH_HNrJ8-17" vertex="1">
          <mxGeometry y="20" width="200" height="30" as="geometry" />
        </mxCell>
        <mxCell id="0nKRqJaGoLqEUH_HNrJ8-19" value="int result_num" style="text;strokeColor=none;fillColor=none;align=left;verticalAlign=middle;spacingLeft=4;spacingRight=4;overflow=hidden;points=[[0,0.5],[1,0.5]];portConstraint=eastwest;rotatable=0;whiteSpace=wrap;html=1;" parent="0nKRqJaGoLqEUH_HNrJ8-17" vertex="1">
          <mxGeometry y="50" width="200" height="30" as="geometry" />
        </mxCell>
        <mxCell id="0nKRqJaGoLqEUH_HNrJ8-26" value="NodeStatus" style="swimlane;whiteSpace=wrap;html=1;startSize=23;" parent="1" vertex="1">
          <mxGeometry x="450" y="390" width="200" height="240" as="geometry" />
        </mxCell>
        <mxCell id="0nKRqJaGoLqEUH_HNrJ8-27" value="string worker_id" style="text;strokeColor=none;fillColor=none;align=left;verticalAlign=middle;spacingLeft=4;spacingRight=4;overflow=hidden;points=[[0,0.5],[1,0.5]];portConstraint=eastwest;rotatable=0;whiteSpace=wrap;html=1;" parent="0nKRqJaGoLqEUH_HNrJ8-26" vertex="1">
          <mxGeometry y="20" width="200" height="30" as="geometry" />
        </mxCell>
        <mxCell id="0nKRqJaGoLqEUH_HNrJ8-28" value="&amp;nbsp;string model_id" style="text;strokeColor=none;fillColor=none;align=left;verticalAlign=middle;spacingLeft=4;spacingRight=4;overflow=hidden;points=[[0,0.5],[1,0.5]];portConstraint=eastwest;rotatable=0;whiteSpace=wrap;html=1;" parent="0nKRqJaGoLqEUH_HNrJ8-26" vertex="1">
          <mxGeometry y="50" width="200" height="30" as="geometry" />
        </mxCell>
        <mxCell id="0nKRqJaGoLqEUH_HNrJ8-29" value="string host" style="text;strokeColor=none;fillColor=none;align=left;verticalAlign=middle;spacingLeft=4;spacingRight=4;overflow=hidden;points=[[0,0.5],[1,0.5]];portConstraint=eastwest;rotatable=0;whiteSpace=wrap;html=1;" parent="0nKRqJaGoLqEUH_HNrJ8-26" vertex="1">
          <mxGeometry y="80" width="200" height="30" as="geometry" />
        </mxCell>
        <mxCell id="0nKRqJaGoLqEUH_HNrJ8-30" value="long&amp;nbsp; &amp;nbsp;queue_depth" style="text;strokeColor=none;fillColor=none;align=left;verticalAlign=middle;spacingLeft=4;spacingRight=4;overflow=hidden;points=[[0,0.5],[1,0.5]];portConstraint=eastwest;rotatable=0;whiteSpace=wrap;html=1;" parent="0nKRqJaGoLqEUH_HNrJ8-26" vertex="1">
          <mxGeometry y="110" width="200" height="30" as="geometry" />
        </mxCell>
        <mxCell id="0nKRqJaGoLqEUH_HNrJ8-31" value="long&amp;nbsp; &amp;nbsp;est_capacity" style="text;strokeColor=none;fillColor=none;align=left;verticalAlign=middle;spacingLeft=4;spacingRight=4;overflow=hidden;points=[[0,0.5],[1,0.5]];portConstraint=eastwest;rotatable=0;whiteSpace=wrap;html=1;" parent="0nKRqJaGoLqEUH_HNrJ8-26" vertex="1">
          <mxGeometry y="140" width="200" height="30" as="geometry" />
        </mxCell>
        <mxCell id="0nKRqJaGoLqEUH_HNrJ8-32" value="&amp;nbsp;string health" style="text;strokeColor=none;fillColor=none;align=left;verticalAlign=middle;spacingLeft=4;spacingRight=4;overflow=hidden;points=[[0,0.5],[1,0.5]];portConstraint=eastwest;rotatable=0;whiteSpace=wrap;html=1;" parent="0nKRqJaGoLqEUH_HNrJ8-26" vertex="1">
          <mxGeometry y="170" width="200" height="30" as="geometry" />
        </mxCell>
        <mxCell id="0nKRqJaGoLqEUH_HNrJ8-33" value="long&amp;nbsp; &amp;nbsp;heartbeat_ms" style="text;strokeColor=none;fillColor=none;align=left;verticalAlign=middle;spacingLeft=4;spacingRight=4;overflow=hidden;points=[[0,0.5],[1,0.5]];portConstraint=eastwest;rotatable=0;whiteSpace=wrap;html=1;" parent="0nKRqJaGoLqEUH_HNrJ8-26" vertex="1">
          <mxGeometry y="200" width="200" height="30" as="geometry" />
        </mxCell>
        <mxCell id="0nKRqJaGoLqEUH_HNrJ8-35" value="Client -&gt; Dispatcher" style="text;whiteSpace=wrap;" parent="1" vertex="1">
          <mxGeometry x="230" y="140" width="140" height="40" as="geometry" />
        </mxCell>
        <mxCell id="0nKRqJaGoLqEUH_HNrJ8-36" value="Dispatcher -&gt; Worker" style="text;whiteSpace=wrap;" parent="1" vertex="1">
          <mxGeometry x="745" y="160" width="150" height="40" as="geometry" />
        </mxCell>
        <mxCell id="0nKRqJaGoLqEUH_HNrJ8-37" value="Worker -&gt; Aggregator&#xa;" style="text;whiteSpace=wrap;" parent="1" vertex="1">
          <mxGeometry x="220" y="380" width="180" height="40" as="geometry" />
        </mxCell>
        <mxCell id="0nKRqJaGoLqEUH_HNrJ8-38" value="Worker -&gt; Dispatcher" style="text;whiteSpace=wrap;" parent="1" vertex="1">
          <mxGeometry x="480" y="350" width="150" height="40" as="geometry" />
        </mxCell>
        <mxCell id="0nKRqJaGoLqEUH_HNrJ8-48" value="AggregatedResult" style="swimlane;whiteSpace=wrap;html=1;startSize=23;" parent="1" vertex="1">
          <mxGeometry x="700" y="430" width="200" height="160" as="geometry" />
        </mxCell>
        <mxCell id="0nKRqJaGoLqEUH_HNrJ8-49" value="List&amp;lt;&lt;span style=&quot;font-weight: 700; text-align: center;&quot;&gt;SingleResult&lt;/span&gt;&amp;gt; results" style="text;strokeColor=none;fillColor=none;align=left;verticalAlign=middle;spacingLeft=4;spacingRight=4;overflow=hidden;points=[[0,0.5],[1,0.5]];portConstraint=eastwest;rotatable=0;whiteSpace=wrap;html=1;" parent="0nKRqJaGoLqEUH_HNrJ8-48" vertex="1">
          <mxGeometry y="20" width="200" height="30" as="geometry" />
        </mxCell>
        <mxCell id="L_CLdgQlcdDKleKCfVZ4-15" value="string client_id" style="text;strokeColor=none;fillColor=none;align=left;verticalAlign=middle;spacingLeft=4;spacingRight=4;overflow=hidden;points=[[0,0.5],[1,0.5]];portConstraint=eastwest;rotatable=0;whiteSpace=wrap;html=1;" vertex="1" parent="0nKRqJaGoLqEUH_HNrJ8-48">
          <mxGeometry y="40" width="200" height="30" as="geometry" />
        </mxCell>
        <mxCell id="L_CLdgQlcdDKleKCfVZ4-24" value="string request_id" style="text;strokeColor=none;fillColor=none;align=left;verticalAlign=middle;spacingLeft=4;spacingRight=4;overflow=hidden;points=[[0,0.5],[1,0.5]];portConstraint=eastwest;rotatable=0;whiteSpace=wrap;html=1;" vertex="1" parent="0nKRqJaGoLqEUH_HNrJ8-48">
          <mxGeometry y="70" width="200" height="30" as="geometry" />
        </mxCell>
        <mxCell id="L_CLdgQlcdDKleKCfVZ4-25" value="string status" style="text;strokeColor=none;fillColor=none;align=left;verticalAlign=middle;spacingLeft=4;spacingRight=4;overflow=hidden;points=[[0,0.5],[1,0.5]];portConstraint=eastwest;rotatable=0;whiteSpace=wrap;html=1;" vertex="1" parent="0nKRqJaGoLqEUH_HNrJ8-48">
          <mxGeometry y="100" width="200" height="30" as="geometry" />
        </mxCell>
        <mxCell id="L_CLdgQlcdDKleKCfVZ4-27" value="string error_message" style="text;strokeColor=none;fillColor=none;align=left;verticalAlign=middle;spacingLeft=4;spacingRight=4;overflow=hidden;points=[[0,0.5],[1,0.5]];portConstraint=eastwest;rotatable=0;whiteSpace=wrap;html=1;" vertex="1" parent="0nKRqJaGoLqEUH_HNrJ8-48">
          <mxGeometry y="130" width="200" height="30" as="geometry" />
        </mxCell>
        <mxCell id="0nKRqJaGoLqEUH_HNrJ8-56" value="Aggregator -&gt; Client" style="text;whiteSpace=wrap;" parent="1" vertex="1">
          <mxGeometry x="730" y="390" width="140" height="40" as="geometry" />
        </mxCell>
        <mxCell id="L_CLdgQlcdDKleKCfVZ4-1" value="SingleTask" style="swimlane;whiteSpace=wrap;html=1;startSize=23;" vertex="1" parent="1">
          <mxGeometry x="455" y="160" width="200" height="190" as="geometry" />
        </mxCell>
        <mxCell id="L_CLdgQlcdDKleKCfVZ4-5" value="Bytes&amp;nbsp; input_blob;" style="text;strokeColor=none;fillColor=none;align=left;verticalAlign=middle;spacingLeft=4;spacingRight=4;overflow=hidden;points=[[0,0.5],[1,0.5]];portConstraint=eastwest;rotatable=0;whiteSpace=wrap;html=1;" vertex="1" parent="L_CLdgQlcdDKleKCfVZ4-1">
          <mxGeometry y="20" width="200" height="30" as="geometry" />
        </mxCell>
        <mxCell id="L_CLdgQlcdDKleKCfVZ4-9" value="string request_id" style="text;strokeColor=none;fillColor=none;align=left;verticalAlign=middle;spacingLeft=4;spacingRight=4;overflow=hidden;points=[[0,0.5],[1,0.5]];portConstraint=eastwest;rotatable=0;whiteSpace=wrap;html=1;" vertex="1" parent="L_CLdgQlcdDKleKCfVZ4-1">
          <mxGeometry y="40" width="200" height="40" as="geometry" />
        </mxCell>
        <mxCell id="L_CLdgQlcdDKleKCfVZ4-12" value="&amp;nbsp;string model_id&amp;nbsp;" style="text;strokeColor=none;fillColor=none;align=left;verticalAlign=middle;spacingLeft=4;spacingRight=4;overflow=hidden;points=[[0,0.5],[1,0.5]];portConstraint=eastwest;rotatable=0;whiteSpace=wrap;html=1;" vertex="1" parent="L_CLdgQlcdDKleKCfVZ4-1">
          <mxGeometry y="70" width="200" height="30" as="geometry" />
        </mxCell>
        <mxCell id="L_CLdgQlcdDKleKCfVZ4-14" value="string client_id" style="text;strokeColor=none;fillColor=none;align=left;verticalAlign=middle;spacingLeft=4;spacingRight=4;overflow=hidden;points=[[0,0.5],[1,0.5]];portConstraint=eastwest;rotatable=0;whiteSpace=wrap;html=1;" vertex="1" parent="L_CLdgQlcdDKleKCfVZ4-1">
          <mxGeometry y="100" width="200" height="30" as="geometry" />
        </mxCell>
        <mxCell id="0nKRqJaGoLqEUH_HNrJ8-3" value="string request_id" style="text;strokeColor=none;fillColor=none;align=left;verticalAlign=middle;spacingLeft=4;spacingRight=4;overflow=hidden;points=[[0,0.5],[1,0.5]];portConstraint=eastwest;rotatable=0;whiteSpace=wrap;html=1;" parent="L_CLdgQlcdDKleKCfVZ4-1" vertex="1">
          <mxGeometry y="130" width="200" height="30" as="geometry" />
        </mxCell>
        <mxCell id="L_CLdgQlcdDKleKCfVZ4-26" value="string task_id" style="text;strokeColor=none;fillColor=none;align=left;verticalAlign=middle;spacingLeft=4;spacingRight=4;overflow=hidden;points=[[0,0.5],[1,0.5]];portConstraint=eastwest;rotatable=0;whiteSpace=wrap;html=1;" vertex="1" parent="L_CLdgQlcdDKleKCfVZ4-1">
          <mxGeometry y="160" width="200" height="30" as="geometry" />
        </mxCell>
        <mxCell id="L_CLdgQlcdDKleKCfVZ4-16" value="SingleResult" style="swimlane;whiteSpace=wrap;html=1;startSize=23;" vertex="1" parent="1">
          <mxGeometry x="200" y="520" width="200" height="190" as="geometry" />
        </mxCell>
        <mxCell id="L_CLdgQlcdDKleKCfVZ4-17" value="SingleTask task" style="text;strokeColor=none;fillColor=none;align=left;verticalAlign=middle;spacingLeft=4;spacingRight=4;overflow=hidden;points=[[0,0.5],[1,0.5]];portConstraint=eastwest;rotatable=0;whiteSpace=wrap;html=1;" vertex="1" parent="L_CLdgQlcdDKleKCfVZ4-16">
          <mxGeometry y="20" width="200" height="30" as="geometry" />
        </mxCell>
        <mxCell id="L_CLdgQlcdDKleKCfVZ4-19" value="string status" style="text;strokeColor=none;fillColor=none;align=left;verticalAlign=middle;spacingLeft=4;spacingRight=4;overflow=hidden;points=[[0,0.5],[1,0.5]];portConstraint=eastwest;rotatable=0;whiteSpace=wrap;html=1;" vertex="1" parent="L_CLdgQlcdDKleKCfVZ4-16">
          <mxGeometry y="50" width="200" height="30" as="geometry" />
        </mxCell>
        <mxCell id="L_CLdgQlcdDKleKCfVZ4-21" value="string output_type" style="text;strokeColor=none;fillColor=none;align=left;verticalAlign=middle;spacingLeft=4;spacingRight=4;overflow=hidden;points=[[0,0.5],[1,0.5]];portConstraint=eastwest;rotatable=0;whiteSpace=wrap;html=1;" vertex="1" parent="L_CLdgQlcdDKleKCfVZ4-16">
          <mxGeometry y="80" width="200" height="30" as="geometry" />
        </mxCell>
        <mxCell id="L_CLdgQlcdDKleKCfVZ4-22" value="long&amp;nbsp; &amp;nbsp;latency_ms" style="text;strokeColor=none;fillColor=none;align=left;verticalAlign=middle;spacingLeft=4;spacingRight=4;overflow=hidden;points=[[0,0.5],[1,0.5]];portConstraint=eastwest;rotatable=0;whiteSpace=wrap;html=1;" vertex="1" parent="L_CLdgQlcdDKleKCfVZ4-16">
          <mxGeometry y="110" width="200" height="30" as="geometry" />
        </mxCell>
        <mxCell id="L_CLdgQlcdDKleKCfVZ4-23" value="Bytes&amp;nbsp; output_blob" style="text;strokeColor=none;fillColor=none;align=left;verticalAlign=middle;spacingLeft=4;spacingRight=4;overflow=hidden;points=[[0,0.5],[1,0.5]];portConstraint=eastwest;rotatable=0;whiteSpace=wrap;html=1;" vertex="1" parent="L_CLdgQlcdDKleKCfVZ4-16">
          <mxGeometry y="150" width="200" height="30" as="geometry" />
        </mxCell>
      </root>
    </mxGraphModel>
  </diagram>
</mxfile>
